<svg width="900" height="810" viewBox="0 0 900 810" fill="none" xmlns="http://www.w3.org/2000/svg">
<g clip-path="url(#clip0_6_28)">
<path d="M426.477 297.784C433.837 286.931 441.894 285.551 448.43 285.551C454.966 285.551 465.855 286.931 473.217 297.784C531.233 377.498 626.996 536.293 697.637 653.428C743.704 729.817 779.086 788.487 786.345 795.953C813.596 823.982 850.969 806.514 872.686 774.721C894.066 743.421 900 721.443 900 697.995C900 682.025 590.257 105.757 559.062 57.7898C529.064 11.6535 519.293 0 467.949 0H429.527C378.336 0 370.938 11.6535 340.937 57.7898C309.746 105.757 0 682.025 0 697.995C0 721.443 5.93537 743.421 27.3157 774.721C49.0325 806.514 86.4052 823.982 113.655 795.953C120.915 788.487 156.297 729.817 202.365 653.428C273.005 536.293 368.461 377.498 426.477 297.784Z" fill="black"/>
</g>
<defs>
<clipPath id="clip0_6_28">
<rect width="900" height="809.716" fill="white"/>
</clipPath>
</defs>
</svg>
