<svg width="900" height="640" viewBox="0 0 900 640" fill="none" xmlns="http://www.w3.org/2000/svg">
<g clip-path="url(#clip0_6_52)">
<path d="M660.624 1.05781C611.448 4.96067 570.208 22.6537 539.506 53.096C507.892 84.449 492.801 122.697 492.801 171.223C492.801 243.816 522.593 294.553 589.072 334.753C605.984 344.9 629.011 355.958 668.82 373.131C723.07 396.418 743.235 407.476 756.114 421.266C771.986 438.309 776.409 465.498 766.392 486.314C764.441 490.347 759.367 497.112 754.814 501.665C739.462 517.146 715.265 525.342 685.212 525.342C634.475 525.342 596.618 504.527 566.175 459.514C562.012 453.53 558.239 448.586 557.719 448.586C556.548 448.586 457.546 505.698 455.464 507.649C454.163 508.82 455.204 511.552 460.278 519.878C499.827 586.487 561.622 625.516 645.143 636.704C666.999 639.696 707.979 639.566 728.925 636.704C781.483 629.289 820.902 611.856 851.474 582.194C883.998 550.841 900 510.251 900 459.384C900 426.86 894.666 401.492 882.567 376.383C874.241 359.21 865.915 347.632 851.605 333.061C824.154 305.221 788.638 284.145 717.736 253.703C664.137 230.676 646.184 220.789 634.345 208.17C623.027 196.071 618.213 181.89 619.254 164.197C620.165 150.147 624.068 140.65 632.654 131.413C645.013 118.014 659.323 112.419 681.44 112.55C706.548 112.55 722.81 119.054 739.332 135.707C745.186 141.431 752.732 150.668 756.245 156.262C760.278 162.636 763.27 166.149 764.31 165.759C767.693 164.328 862.272 103.183 862.272 102.272C862.272 101.752 857.459 94.2061 851.605 85.3596C839.115 66.6259 816.609 43.2087 801.127 32.9312C772.506 13.9373 741.934 4.1801 701.605 1.18791C681.83 -0.373239 679.228 -0.373239 660.624 1.05781Z" fill="black"/>
<path d="M255.637 237.441L255.247 467.45L252.385 478.248C248.612 492.428 244.189 500.884 236.383 508.69C225.455 519.618 211.405 524.171 187.988 524.301C154.553 524.431 134.519 510.251 111.232 470.442C107.459 464.197 104.076 459.124 103.686 459.254C103.166 459.514 79.6184 473.694 51.3877 490.737L0 521.96L3.90286 529.765C27.1899 576.209 67.5195 611.335 116.045 627.467C167.303 644.51 233.131 642.948 281.396 623.564C339.289 600.147 373.244 551.752 382.22 479.809C383.001 472.523 383.521 391.214 383.521 238.222V7.56244H319.775H256.158L255.637 237.441Z" fill="black"/>
</g>
<defs>
<clipPath id="clip0_6_52">
<rect width="900" height="639.252" fill="white"/>
</clipPath>
</defs>
</svg>
