<svg id="Capa_1" data-name="Capa 1" xmlns="http://www.w3.org/2000/svg" viewBox="0 0 505 531"><defs><style>.cls-1{isolation:isolate;}.cls-2{fill:#c6c6c6;}.cls-3{fill:#dadada;}</style></defs><path d="M433.86,80.67,325.64,19.06a146.07,146.07,0,0,0-144.28,0L73.14,80.67A141.94,141.94,0,0,0,1,203.89V327.11A141.94,141.94,0,0,0,73.14,450.33L125.26,480c1.57,1,3.19,1.92,4.86,2.76l51.24,29.18a146.07,146.07,0,0,0,144.28,0l51.24-29.18c1.67-.84,3.29-1.77,4.86-2.76l52.12-29.67A141.94,141.94,0,0,0,506,327.11V203.89A141.94,141.94,0,0,0,433.86,80.67Z" transform="translate(-1)"/><path d="M388.53,249.57c0,.58,0,1.17,0,1.75,0,1.11,0,2.23-.09,3.35,0,.75-.06,1.49-.11,2.24a135,135,0,0,1-127.48,127.4c-.75.05-1.49.08-2.24.11l-3.36.09H253.5l.5-134.45Z" transform="translate(-1)"/><g class="cls-1"><polygon class="cls-2" points="130.18 332.26 127.81 183.33 254.43 108.35 256.8 257.28 130.18 332.26"/><polygon class="cls-3" points="259.61 404.63 130.18 332.26 256.8 257.28 386.23 329.66 259.61 404.63"/><polygon class="cls-3" points="127.81 183.33 254.43 108.35 383.86 180.72 257.24 255.7 127.81 183.33"/><polygon class="cls-2" points="257.24 255.7 383.86 180.72 386.23 329.66 259.61 404.63 257.24 255.7"/></g></svg>