<?xml version="1.0" encoding="utf-8"?>
<!-- Generator: Adobe Illustrator 25.4.1, SVG Export Plug-In . SVG Version: 6.00 Build 0)  -->
<svg version="1.1" id="Capa_1" xmlns="http://www.w3.org/2000/svg" xmlns:xlink="http://www.w3.org/1999/xlink" x="0px" y="0px"
	 viewBox="0 0 522 288" style="enable-background:new 0 0 522 288;" xml:space="preserve">
<style type="text/css">
	.st0{stroke:#000000;stroke-width:0.25;stroke-miterlimit:10;}
</style>
<g>
	<path class="st0" d="M484.2,108c-1.27-6.26-3.19-12.29-5.69-18c-2.8-6.43-6.34-12.46-10.5-18L468,71.99
		c-0.64-0.85-1.29-1.69-1.96-2.52c-0.67-0.83-1.35-1.64-2.04-2.44l-0.01-0.01c-0.69-0.8-1.4-1.59-2.12-2.36
		c-0.01-0.01-0.01-0.01-0.01-0.01c-0.73-0.78-1.47-1.55-2.22-2.29c-0.56-0.56-1.12-1.11-1.7-1.65c-0.39-0.38-0.79-0.76-1.2-1.13
		c-0.37-0.34-0.75-0.68-1.13-1c-0.43-0.39-0.86-0.76-1.29-1.12c-1.4-1.21-2.84-2.35-4.31-3.46H450v-0.01
		c-5.54-4.16-11.57-7.69-18-10.5c-5.71-2.5-11.74-4.42-18-5.69c-5.81-1.18-11.83-1.8-18-1.8c-2.03,0-4.05,0.07-6.05,0.21
		c-4.06,0.26-8.05,0.8-11.95,1.59c-2.39,0.48-4.75,1.06-7.06,1.74c-3.76,1.08-7.41,2.4-10.94,3.95c-2.06,0.9-4.08,1.87-6.06,2.92
		c-4.19,2.22-8.18,4.75-11.94,7.58V54h-0.01c-1.03,0.77-2.04,1.56-3.03,2.38c-4.77,3.91-9.13,8.3-13,13.1
		c-0.67,0.82-1.32,1.66-1.96,2.51V72h-0.01c-3.46,4.61-6.49,9.56-9.03,14.8c0,0,0,0,0,0.01c-0.51,1.05-1,2.11-1.47,3.19
		c-2.5,5.71-4.42,11.74-5.69,18c-1.18,5.81-1.8,11.83-1.8,18c0,6.17,0.62,12.19,1.8,18c1.27,6.26,3.19,12.29,5.69,18
		c0.47,1.08,0.96,2.14,1.47,3.19c0,0.01,0,0.01,0,0.01c2.54,5.24,5.57,10.19,9.03,14.8H324v0.01c0.64,0.85,1.29,1.69,1.96,2.51
		c3.87,4.8,8.23,9.19,13,13.1c0.99,0.82,2,1.61,3.03,2.38H342v0.01c3.76,2.83,7.75,5.36,11.94,7.58c1.98,1.05,4,2.02,6.06,2.92
		c3.53,1.55,7.18,2.87,10.94,3.95c2.31,0.68,4.67,1.26,7.06,1.74c3.9,0.79,7.89,1.33,11.95,1.59c2,0.14,4.02,0.21,6.05,0.21
		c6.17,0,12.19-0.62,18-1.8c6.26-1.27,12.29-3.19,18-5.69c6.43-2.81,12.46-6.34,18-10.5c0-0.01,0.01-0.01,0.01-0.01
		c1.47-1.11,2.91-2.25,4.31-3.46c0.43-0.36,0.86-0.73,1.29-1.12c0.38-0.32,0.76-0.66,1.13-1c0.41-0.37,0.81-0.75,1.2-1.13
		c0.58-0.54,1.14-1.09,1.7-1.65c0.75-0.74,1.49-1.51,2.22-2.29c0,0,0,0,0.01-0.01c0.72-0.77,1.43-1.56,2.12-2.36l0.01-0.01
		c0.69-0.8,1.37-1.61,2.04-2.44c0.67-0.83,1.32-1.67,1.96-2.52V279c0,4.97,4.03,9,9,9s9-4.03,9-9V126
		C486,119.83,485.38,113.81,484.2,108z M465.73,144c-1.64,6.39-4.14,12.43-7.36,18c-0.33,0.57-0.67,1.14-1.02,1.7
		c-0.01,0.02-0.02,0.04-0.04,0.06c-0.27,0.44-0.54,0.87-0.82,1.3c-0.25,0.4-0.51,0.79-0.78,1.18c-0.45,0.66-0.9,1.32-1.37,1.96
		c-0.07,0.1-0.15,0.21-0.23,0.31c-0.25,0.35-0.51,0.7-0.77,1.04c-0.34,0.45-0.68,0.89-1.04,1.32c-0.36,0.47-0.74,0.93-1.13,1.39
		c-0.19,0.23-0.38,0.46-0.58,0.68c-0.19,0.23-0.39,0.45-0.59,0.67c-0.24,0.28-0.49,0.56-0.75,0.84c-0.03,0.04-0.07,0.08-0.12,0.13
		c-0.21,0.24-0.43,0.47-0.65,0.7c-0.34,0.37-0.68,0.73-1.03,1.08c-0.05,0.05-0.1,0.1-0.15,0.15c-0.16,0.17-0.33,0.34-0.5,0.5
		c-0.11,0.11-0.22,0.23-0.34,0.33c-0.39,0.39-0.78,0.77-1.18,1.14c-0.28,0.26-0.55,0.52-0.83,0.77c-0.28,0.25-0.56,0.5-0.84,0.75
		c-3.57,3.16-7.46,5.97-11.61,8.37c-5.57,3.22-11.61,5.72-18,7.36c-4.83,1.24-9.86,2-15.03,2.21c-0.01,0.02-0.02,0.04-0.03,0.06H396
		c-5.51,0-10.88-0.62-16.04-1.79c-0.66-0.15-1.31-0.31-1.96-0.48c-5.28-1.36-10.31-3.3-15.05-5.75c-1-0.51-1.98-1.05-2.95-1.61
		c-4.15-2.4-8.04-5.21-11.61-8.37h-0.59c0.06-0.12,0.11-0.25,0.17-0.37c-2.11-1.88-4.11-3.9-5.97-6.02
		c-2.6-2.93-4.95-6.08-7.04-9.41c-0.45-0.72-0.9-1.46-1.33-2.2c-3.22-5.57-5.72-11.61-7.36-18c-1.48-5.75-2.27-11.78-2.27-18
		c0-6.22,0.79-12.25,2.27-18c1.64-6.39,4.14-12.43,7.36-18c0.43-0.74,0.88-1.48,1.33-2.2c2.09-3.33,4.44-6.48,7.04-9.41
		c1.86-2.12,3.86-4.14,5.97-6.02c-0.06-0.12-0.11-0.25-0.17-0.37h0.59c3.57-3.16,7.46-5.97,11.61-8.37c0.97-0.56,1.95-1.1,2.95-1.61
		c4.74-2.45,9.77-4.39,15.05-5.75c0.65-0.17,1.3-0.33,1.96-0.48C385.12,54.62,390.49,54,396,54h2.94c0.01,0.02,0.02,0.04,0.03,0.06
		c5.17,0.21,10.2,0.97,15.03,2.21c6.39,1.64,12.43,4.14,18,7.36c4.15,2.4,8.04,5.21,11.61,8.37c0.28,0.25,0.56,0.5,0.84,0.75
		c0.28,0.25,0.55,0.51,0.83,0.77c0.4,0.37,0.79,0.75,1.18,1.14c0.12,0.1,0.23,0.22,0.34,0.33c0.17,0.16,0.34,0.33,0.5,0.5
		c0.05,0.05,0.1,0.1,0.15,0.15c0.35,0.35,0.69,0.71,1.03,1.08c0.22,0.23,0.44,0.46,0.65,0.7c0.05,0.05,0.09,0.09,0.12,0.13
		c0.26,0.28,0.51,0.56,0.75,0.84c0.2,0.23,0.4,0.45,0.59,0.67c0.19,0.23,0.39,0.46,0.58,0.68c0.39,0.46,0.77,0.92,1.13,1.39
		c0.36,0.43,0.7,0.87,1.04,1.32c0.26,0.34,0.52,0.69,0.77,1.04c0.08,0.1,0.16,0.21,0.23,0.31c0.47,0.64,0.92,1.3,1.37,1.96
		c0.27,0.39,0.53,0.78,0.78,1.18c0.28,0.43,0.55,0.86,0.82,1.3c0.02,0.02,0.03,0.04,0.04,0.06c0.35,0.56,0.69,1.13,1.02,1.7
		c3.22,5.57,5.72,11.61,7.36,18c1.48,5.75,2.27,11.78,2.27,18C468,132.22,467.21,138.25,465.73,144z"/>
	<path class="st0" d="M520.72,108c-0.88-6.16-2.2-12.17-3.93-18c-1.85-6.21-4.17-12.23-6.91-18c-1.78-3.75-3.75-7.4-5.88-10.94
		c-1.45-2.41-2.98-4.76-4.58-7.06c-4.02-5.76-8.51-11.17-13.42-16.17c-0.59-0.62-1.2-1.23-1.82-1.83c-5-4.91-10.41-9.4-16.18-13.42
		c-2.3-1.6-4.65-3.13-7.06-4.58c-3.54-2.13-7.19-4.09-10.94-5.87c-5.77-2.75-11.79-5.07-18-6.92c-5.83-1.73-11.84-3.05-18-3.93
		C408.12,0.44,402.11,0,396,0s-12.12,0.44-18,1.28c-4.1,0.58-8.12,1.36-12.08,2.34c-1.99,0.48-3.97,1.01-5.92,1.59
		c-4.47,1.33-8.83,2.91-13.08,4.7c-1.66,0.7-3.3,1.44-4.92,2.21c-3.75,1.78-7.4,3.75-10.94,5.88c-0.38,0.22-0.76,0.46-1.13,0.69
		c-2.02,1.24-4,2.54-5.93,3.89c-3.12,2.18-6.14,4.49-9.04,6.94c-2.47,2.06-4.85,4.22-7.14,6.48c-0.61,0.6-1.22,1.21-1.82,1.82
		c-1.38,1.4-2.73,2.84-4.04,4.31c-3.36,3.76-6.49,7.72-9.38,11.87c-0.55,0.78-1.09,1.58-1.62,2.38c-1.02,1.53-2.01,3.1-2.96,4.68
		c-2.13,3.54-4.1,7.19-5.88,10.94c-0.06,0.12-0.12,0.25-0.17,0.37c-2.67,5.66-4.93,11.55-6.74,17.63c-0.08,0.3-0.17,0.6-0.26,0.9
		c-1.6,5.55-2.84,11.26-3.67,17.1c-0.84,5.88-1.28,11.89-1.28,18s0.44,12.12,1.28,18c0.83,5.84,2.07,11.55,3.67,17.1
		c0.09,0.3,0.18,0.6,0.26,0.9c1.81,6.08,4.07,11.97,6.74,17.63c0.05,0.12,0.11,0.25,0.17,0.37c1.78,3.75,3.75,7.4,5.88,10.94
		c0.95,1.58,1.94,3.15,2.96,4.68c0.53,0.8,1.07,1.6,1.62,2.38c2.89,4.15,6.02,8.11,9.38,11.87c1.31,1.47,2.66,2.91,4.04,4.31
		c0.6,0.61,1.21,1.22,1.82,1.82c2.29,2.26,4.67,4.42,7.14,6.48c2.9,2.45,5.92,4.76,9.04,6.94c1.93,1.35,3.91,2.65,5.93,3.89
		c0.37,0.23,0.75,0.47,1.13,0.69c3.54,2.13,7.19,4.1,10.94,5.88c1.62,0.77,3.26,1.51,4.92,2.21c4.25,1.79,8.61,3.37,13.08,4.7
		c1.95,0.58,3.93,1.11,5.92,1.59c3.96,0.98,7.98,1.76,12.08,2.34c5.88,0.84,11.89,1.28,18,1.28s12.12-0.44,18-1.28
		c6.16-0.88,12.17-2.2,18-3.93c6.21-1.85,12.23-4.17,18-6.92c3.75-1.78,7.4-3.74,10.94-5.87c2.41-1.45,4.76-2.98,7.06-4.58V206.5
		c-0.01,0.01-0.01,0.01-0.02,0.02c-0.48,0.43-0.96,0.85-1.44,1.26c-0.49,0.42-0.98,0.84-1.48,1.26c-0.36,0.29-0.72,0.59-1.08,0.88
		c-0.42,0.35-0.85,0.69-1.28,1.02c-0.33,0.26-0.66,0.52-0.99,0.77c-0.4,0.32-0.81,0.63-1.23,0.93c-0.44,0.33-0.89,0.66-1.34,0.98
		c-1.13,0.82-2.27,1.61-3.43,2.38c-0.93,0.62-1.87,1.22-2.82,1.82c-0.48,0.29-0.96,0.58-1.44,0.87c-0.48,0.29-0.96,0.58-1.45,0.86
		c-0.55,0.32-1.11,0.63-1.67,0.94c-0.37,0.21-0.74,0.41-1.12,0.61c-0.98,0.54-1.97,1.05-2.97,1.54c-0.48,0.25-0.97,0.49-1.46,0.72
		c-0.09,0.05-0.17,0.09-0.26,0.13c-0.43,0.21-0.86,0.41-1.3,0.61c-0.51,0.24-1.02,0.47-1.54,0.69c-0.41,0.19-0.82,0.37-1.24,0.55
		c-0.67,0.29-1.35,0.57-2.03,0.84c-0.66,0.27-1.31,0.53-1.97,0.78c-0.07,0.02-0.13,0.04-0.19,0.07c-0.75,0.28-1.5,0.55-2.25,0.82
		c-5.79,2.05-11.81,3.62-18,4.65c-5.85,0.99-11.87,1.5-18,1.5c-5.81,0-11.51-0.46-17.07-1.34c-0.31-0.05-0.62-0.1-0.93-0.16
		c-6.19-1.03-12.21-2.6-18-4.65c-0.03-0.01-0.05-0.01-0.07-0.03c-5.92-2.09-11.61-4.69-17-7.74c-0.31-0.17-0.62-0.35-0.93-0.53
		c-1.94-1.12-3.85-2.3-5.71-3.55c-2.88-1.91-5.66-3.96-8.34-6.13c-1.35-1.09-2.66-2.22-3.95-3.37c-2.99-2.67-5.83-5.51-8.5-8.5
		c-0.18-0.2-0.36-0.4-0.54-0.61v-0.01c-3.25-3.67-6.24-7.57-8.96-11.67c-0.7-1.05-1.38-2.11-2.04-3.19
		c-0.52-0.83-1.02-1.67-1.51-2.52c-2.91-5.03-5.42-10.3-7.49-15.8c-0.28-0.73-0.55-1.46-0.81-2.2c-2.05-5.79-3.62-11.81-4.65-18
		c-0.99-5.85-1.5-11.87-1.5-18s0.51-12.15,1.5-18c1.03-6.19,2.6-12.21,4.65-18c0.26-0.74,0.53-1.47,0.81-2.2
		c2.07-5.5,4.58-10.77,7.49-15.8c0.49-0.85,0.99-1.69,1.51-2.52c0.66-1.08,1.34-2.14,2.04-3.19c2.72-4.1,5.71-8,8.96-11.67v-0.01
		c-0.19-0.21-0.36-0.41-0.55-0.61h1.09c2.67-2.99,5.51-5.83,8.5-8.5c1.29-1.15,2.6-2.28,3.95-3.37c2.68-2.17,5.46-4.22,8.34-6.13
		c1.86-1.25,3.77-2.43,5.71-3.55c0.31-0.18,0.62-0.36,0.93-0.53c5.39-3.05,11.08-5.65,17-7.74c0.02-0.02,0.04-0.02,0.07-0.03
		c5.79-2.05,11.81-3.62,18-4.65c0.31-0.06,0.62-0.11,0.93-0.16C384.49,18.46,390.19,18,396,18c6.13,0,12.15,0.51,18,1.5
		c6.19,1.03,12.21,2.6,18,4.65c0.75,0.27,1.5,0.54,2.25,0.82c0.06,0.03,0.12,0.05,0.19,0.07c0.66,0.25,1.31,0.51,1.97,0.78
		c0.68,0.27,1.36,0.55,2.03,0.84c0.42,0.18,0.83,0.36,1.24,0.55c0.52,0.22,1.03,0.45,1.54,0.69c0.44,0.2,0.87,0.4,1.3,0.61
		c0.09,0.04,0.17,0.08,0.26,0.13c0.49,0.23,0.98,0.47,1.46,0.72c1,0.49,1.99,1,2.97,1.54c0.38,0.2,0.75,0.4,1.12,0.61
		c0.56,0.31,1.12,0.62,1.67,0.94c0.49,0.28,0.97,0.57,1.45,0.86c0.48,0.29,0.96,0.58,1.44,0.87c0.95,0.6,1.89,1.2,2.82,1.82
		c1.16,0.77,2.3,1.56,3.43,2.38c0.45,0.32,0.9,0.65,1.34,0.98c0.42,0.3,0.83,0.61,1.23,0.93c0.33,0.25,0.66,0.51,0.99,0.77
		c0.43,0.33,0.86,0.67,1.28,1.02c0.36,0.29,0.72,0.59,1.08,0.88c0.5,0.42,0.99,0.84,1.48,1.26c0.48,0.42,0.96,0.84,1.44,1.26
		c0.01,0.01,0.01,0.01,0.02,0.02c0.65,0.58,1.3,1.18,1.94,1.78c0.87,0.81,1.73,1.64,2.56,2.49c0.57,0.56,1.12,1.13,1.66,1.7
		c0.02,0.01,0.03,0.02,0.03,0.03c0.28,0.29,0.55,0.57,0.81,0.86c0.51,0.54,1.01,1.09,1.5,1.64c0.45,0.51,0.9,1.01,1.34,1.53
		c0.32,0.37,0.64,0.74,0.96,1.12c0.23,0.28,0.47,0.56,0.69,0.85c0.27,0.31,0.53,0.63,0.78,0.95c0.07,0.08,0.14,0.17,0.21,0.26
		c0.45,0.56,0.89,1.13,1.33,1.7c0.01,0.01,0.02,0.03,0.03,0.04c0.51,0.67,1.01,1.34,1.5,2.01c0.06,0.09,0.13,0.17,0.19,0.26
		c0.42,0.59,0.84,1.17,1.24,1.77c0.42,0.6,0.83,1.2,1.23,1.81c0.01,0.02,0.02,0.03,0.03,0.05c0.3,0.45,0.6,0.9,0.89,1.35
		c0.46,0.71,0.91,1.42,1.34,2.14c0.44,0.71,0.87,1.43,1.29,2.16c3.29,5.69,6.08,11.71,8.3,18c2.05,5.79,3.62,11.81,4.65,18
		c0.99,5.85,1.5,11.87,1.5,18v153c0,4.97,4.03,9,9,9s9-4.03,9-9V126C522,119.89,521.56,113.88,520.72,108z M378,233.9v0.1h-0.07
		C377.95,233.97,377.98,233.94,378,233.9z"/>
	<path class="st0" d="M446.92,108c-2.36-6.71-6.02-12.81-10.68-18c-1.33-1.49-2.75-2.91-4.24-4.24c-5.19-4.66-11.29-8.32-18-10.68
		c-2.6-0.93-5.28-1.65-8.04-2.16C402.73,72.31,399.4,72,396,72c-3.08,0-6.09,0.26-9.03,0.75c-3.09,0.52-6.08,1.3-8.97,2.33
		c-2.79,0.98-5.48,2.19-8.04,3.6c-3.59,1.98-6.93,4.36-9.96,7.08c-1.49,1.33-2.91,2.75-4.24,4.24c-0.27,0.29-0.53,0.6-0.79,0.9
		c-4.28,5-7.66,10.78-9.89,17.1c-2,5.63-3.08,11.69-3.08,18s1.08,12.37,3.08,18c2.23,6.32,5.61,12.1,9.89,17.1
		c0.26,0.3,0.52,0.61,0.79,0.9c1.33,1.49,2.75,2.91,4.24,4.24c3.03,2.72,6.37,5.1,9.96,7.08c2.56,1.41,5.25,2.62,8.04,3.6
		c2.89,1.03,5.88,1.81,8.97,2.33c2.94,0.49,5.95,0.75,9.03,0.75c3.4,0,6.73-0.31,9.96-0.92c2.76-0.51,5.44-1.23,8.04-2.16
		c6.71-2.36,12.81-6.02,18-10.68c1.49-1.33,2.91-2.75,4.24-4.24c4.66-5.19,8.32-11.29,10.68-18c2-5.63,3.08-11.69,3.08-18
		S448.92,113.63,446.92,108z M427.18,144c-3.16,5.46-7.72,10.02-13.18,13.18c-0.99,0.58-2.01,1.11-3.06,1.58
		c-4.55,2.08-9.61,3.24-14.94,3.24h-4.1c0.02-0.08,0.04-0.15,0.05-0.23c-5.04-0.56-9.76-2.16-13.95-4.59
		c-1.05-0.6-2.07-1.26-3.05-1.97c-4.12-2.98-7.58-6.8-10.13-11.21c-3.07-5.3-4.82-11.44-4.82-18s1.75-12.7,4.82-18
		c2.55-4.41,6.01-8.23,10.13-11.21c0.98-0.71,2-1.37,3.05-1.97c4.19-2.43,8.91-4.03,13.95-4.59c-0.01-0.08-0.03-0.15-0.05-0.23h4.1
		c5.33,0,10.39,1.16,14.94,3.24c1.05,0.47,2.07,1,3.06,1.58c5.46,3.16,10.02,7.72,13.18,13.18c3.07,5.3,4.82,11.44,4.82,18
		S430.25,138.7,427.18,144z"/>
</g>
<g>
	<g>
		<path class="st0" d="M179.95,164.19c-0.21,5.52-1.26,10.83-3.03,15.81c-2.25,6.38-5.67,12.21-10.01,17.24
			c-0.22,0.25-0.44,0.51-0.67,0.76c-1.33,1.49-2.75,2.91-4.24,4.24c-3.07,2.75-6.46,5.16-10.1,7.15c-2.52,1.39-5.16,2.57-7.9,3.53
			c-2.93,1.04-5.98,1.83-9.12,2.35c-2.89,0.48-5.85,0.73-8.88,0.73c-3.46,0-6.85-0.33-10.13-0.95c-2.7-0.51-5.33-1.22-7.87-2.13
			c-6.71-2.36-12.81-6.02-18-10.68c-1.49-1.33-2.91-2.75-4.24-4.24c-4.66-5.19-8.32-11.29-10.68-18c-2-5.63-3.08-11.69-3.08-18
			c0-4.97,4.03-9,9-9s9,4.03,9,9c0,6.56,1.75,12.7,4.82,18c3.16,5.46,7.72,10.02,13.18,13.18c0.94,0.55,1.9,1.05,2.88,1.5
			c4.6,2.13,9.72,3.32,15.12,3.32h3.94c-0.02-0.07-0.04-0.14-0.05-0.21c5.1-0.55,9.88-2.16,14.11-4.61c1-0.57,1.97-1.2,2.91-1.87
			c4.18-2.99,7.69-6.85,10.27-11.31c2.74-4.73,4.43-10.15,4.76-15.93c0.01,0.83,0.03,1.66,0.06,2.48V162c0-4.97,4.03-9,9-9
			c4.6,0,8.4,3.45,8.93,7.91c0.01,0.01,0.01,0.02,0,0.03c-0.01,0.35-0.01,0.71-0.01,1.06c0,0.35,0,0.71,0.01,1.06v0.01
			c0.01,0.01,0.01,0.01,0,0.02v0.01C179.93,163.46,179.94,163.83,179.95,164.19z"/>
	</g>
	<path class="st0" d="M216,9v98.89c-0.03,0.03-0.06,0.07-0.09,0.11H216v50.56c-0.01,0.32-0.03,0.64-0.04,0.96v0.06
		c-0.03,0.8-0.04,1.61-0.04,2.42s0.01,1.62,0.04,2.42v0.06c-0.14,5.3-0.74,10.49-1.76,15.52c-1.27,6.26-3.19,12.29-5.69,18
		c-0.49,1.14-1.01,2.26-1.55,3.36c-2.52,5.18-5.52,10.08-8.95,14.64H198v0.01c-0.67,0.89-1.35,1.76-2.05,2.62
		c-3.88,4.79-8.24,9.17-13.01,13.07c-0.96,0.79-1.93,1.55-2.93,2.3H180v0.01c-3.79,2.85-7.83,5.41-12.06,7.64
		c-1.93,1.03-3.92,1.98-5.94,2.86c-3.57,1.56-7.27,2.9-11.07,3.99c-2.27,0.66-4.58,1.22-6.93,1.7c-3.95,0.8-7.99,1.34-12.11,1.6
		c-1.95,0.14-3.91,0.2-5.89,0.2c-6.17,0-12.19-0.62-18-1.8c-6.26-1.27-12.29-3.19-18-5.69c-6.43-2.81-12.47-6.34-18.01-10.51
		c-6.82-5.12-12.88-11.18-18-18c-4.16-5.54-7.7-11.57-10.5-18c-2.5-5.71-4.42-11.74-5.69-18c-0.59-2.9-1.04-5.86-1.34-8.86
		c-0.07-0.73-0.14-1.47-0.19-2.2c-0.06-0.68-0.1-1.36-0.13-2.05c-0.04-0.73-0.07-1.45-0.09-2.18c-0.03-0.75-0.04-1.5-0.04-2.25
		C36,162.31,36,162.16,36,162c0-0.16,0-0.31,0.01-0.46c0.24-4.76,4.18-8.54,8.99-8.54c4.97,0,9,4.03,9,9c0,6.22,0.79,12.25,2.27,18
		c1.64,6.39,4.14,12.43,7.36,18c3.93,6.78,8.92,12.86,14.76,18c3.57,3.16,7.46,5.97,11.61,8.37c5.57,3.22,11.61,5.72,18,7.36
		c4.78,1.23,9.75,1.98,14.87,2.2c0.01,0.03,0.02,0.05,0.03,0.07h3.1c5.46,0,10.78-0.61,15.89-1.76c0.71-0.16,1.41-0.33,2.11-0.51
		c5.23-1.34,10.22-3.26,14.92-5.68c1.04-0.54,2.07-1.1,3.08-1.68c4.15-2.4,8.04-5.21,11.61-8.37h0.43
		c-0.04-0.09-0.08-0.18-0.12-0.27c2.15-1.91,4.18-3.96,6.08-6.12c2.56-2.89,4.88-5.98,6.94-9.25c0.49-0.78,0.97-1.56,1.43-2.36
		c3.22-5.57,5.72-11.61,7.36-18c1.28-4.97,2.05-10.15,2.23-15.48c0,0.36,0.02,0.73,0.04,1.08V9c0-4.97,4.03-9,9-9S216,4.03,216,9z"
		/>
	<path class="st0" d="M252,9v51.12c-0.01,0-0.02,0.01-0.03,0.01c0.01,0.01,0.02,0.03,0.03,0.04v99.43
		c-0.01,0.11-0.02,0.22-0.02,0.33v0.04c-0.04,0.67-0.06,1.35-0.06,2.03s0.02,1.36,0.06,2.03v0.04c-0.08,5.4-0.51,10.72-1.26,15.93
		c-0.84,5.89-2.09,11.65-3.72,17.25l-0.21,0.75c-1.83,6.12-4.1,12.04-6.79,17.73c-0.04,0.09-0.08,0.18-0.12,0.27
		c-1.78,3.75-3.75,7.4-5.88,10.94c-0.97,1.61-1.97,3.2-3.02,4.76c-0.51,0.78-1.03,1.54-1.56,2.3c-2.91,4.17-6.06,8.16-9.45,11.94
		c-1.28,1.45-2.61,2.86-3.97,4.24c-0.6,0.61-1.21,1.22-1.82,1.82c-2.32,2.28-4.72,4.47-7.22,6.55c-2.88,2.42-5.87,4.71-8.96,6.87
		c-1.97,1.37-3.98,2.69-6.03,3.95c-0.34,0.22-0.68,0.43-1.03,0.63c-3.54,2.13-7.19,4.1-10.94,5.88c-1.66,0.79-3.33,1.54-5.03,2.25
		c-4.21,1.78-8.54,3.34-12.97,4.66c-2,0.59-4.01,1.13-6.05,1.63c-3.91,0.95-7.9,1.73-11.95,2.3c-5.88,0.84-11.89,1.28-18,1.28
		s-12.12-0.44-18-1.28c-6.16-0.88-12.17-2.2-18-3.93c-10.25-3.06-19.96-7.38-28.94-12.79c-8.45-5.08-16.24-11.13-23.24-18
		c-5.62-5.5-10.72-11.53-15.24-18c-3.96-5.67-7.46-11.69-10.46-18c-2.74-5.77-5.06-11.79-6.91-18c-1.73-5.83-3.05-11.84-3.93-18
		C0.44,174.12,0,168.11,0,162c0-4.97,4.03-9,9-9s9,4.03,9,9c0,6.13,0.51,12.15,1.5,18c1.03,6.19,2.6,12.21,4.65,18
		c2.22,6.29,5.01,12.31,8.3,18c3.73,6.45,8.11,12.48,13.05,18c6.13,6.85,13.11,12.9,20.79,18c7.32,4.87,15.28,8.87,23.71,11.85
		c5.79,2.05,11.81,3.62,18,4.65c5.85,0.99,11.87,1.5,18,1.5c5.76,0,11.41-0.45,16.93-1.32c0.36-0.06,0.71-0.11,1.07-0.18
		c6.18-1.03,12.18-2.59,17.95-4.63c0.02,0.02,0.03,0.04,0.05,0.06v-0.08c5.91-2.08,11.58-4.67,16.96-7.71
		c0.35-0.19,0.69-0.39,1.04-0.59c1.94-1.12,3.85-2.3,5.71-3.55c2.85-1.88,5.6-3.91,8.24-6.06c1.38-1.11,2.73-2.26,4.05-3.44
		c2.99-2.67,5.83-5.51,8.5-8.5h0.92c-0.15-0.17-0.31-0.34-0.46-0.52c3.28-3.7,6.3-7.64,9.04-11.77c0.68-1.01,1.34-2.04,1.97-3.08
		c0.54-0.87,1.07-1.75,1.58-2.63c2.88-4.98,5.37-10.2,7.43-15.64c0.3-0.78,0.59-1.57,0.87-2.36c2.05-5.79,3.62-11.81,4.65-18
		c0.87-5.15,1.37-10.42,1.47-15.78c0,0.24,0.02,0.47,0.03,0.71V9c0-4.97,4.03-9,9-9S252,4.03,252,9z"/>
</g>
</svg>
