<svg width="900" height="900" viewBox="0 0 900 900" fill="none" xmlns="http://www.w3.org/2000/svg">
<g clip-path="url(#clip0_6_20)">
<mask id="mask0_6_20" style="mask-type:alpha" maskUnits="userSpaceOnUse" x="0" y="0" width="900" height="900">
<path d="M450 900C698.528 900 900 698.528 900 450C900 201.472 698.528 0 450 0C201.472 0 0 201.472 0 450C0 698.528 201.472 900 450 900Z" fill="black"/>
</mask>
<g mask="url(#mask0_6_20)">
<path d="M450 900C698.528 900 900 698.528 900 450C900 201.472 698.528 0 450 0C201.472 0 0 201.472 0 450C0 698.528 201.472 900 450 900Z" fill="black"/>
<path d="M747.54 787.6L345.71 270H270V629.85H330.568V346.918L699.995 824.225C716.665 813.07 732.545 800.825 747.54 787.6Z" fill="url(#paint0_linear_6_20)"/>
<path d="M635 270H575V630H635V270Z" fill="url(#paint1_linear_6_20)"/>
</g>
</g>
<defs>
<linearGradient id="paint0_linear_6_20" x1="545" y1="582.5" x2="722.5" y2="802.5" gradientUnits="userSpaceOnUse">
<stop stop-color="white"/>
<stop offset="1" stop-color="white" stop-opacity="0"/>
</linearGradient>
<linearGradient id="paint1_linear_6_20" x1="605" y1="270" x2="603.995" y2="534.375" gradientUnits="userSpaceOnUse">
<stop stop-color="white"/>
<stop offset="1" stop-color="white" stop-opacity="0"/>
</linearGradient>
<clipPath id="clip0_6_20">
<rect width="900" height="900" fill="white"/>
</clipPath>
</defs>
</svg>
