<svg width="900" height="1123" viewBox="0 0 900 1123" fill="none" xmlns="http://www.w3.org/2000/svg">
<path fill-rule="evenodd" clip-rule="evenodd" d="M894.071 846.002L520.318 52.2831C515.674 42.5149 508.476 34.1841 499.484 28.1723C490.493 22.1606 480.044 18.6917 469.242 18.1327C458.422 17.4077 447.609 19.6635 437.981 24.6547C428.353 29.6459 420.278 37.1815 414.634 46.442L9.25761 703.016C3.09321 712.93 -0.117037 724.396 0.00326105 736.07C0.123559 747.743 3.56941 759.141 9.93682 768.926L208.129 1075.84C215.627 1087.37 226.649 1096.15 239.55 1100.9C252.452 1105.64 266.541 1106.09 279.717 1102.17L854.868 932.043C863.527 929.512 871.543 925.15 878.372 919.254C885.201 913.358 890.684 906.064 894.452 897.866C898.167 889.71 900.06 880.843 899.999 871.881C899.938 862.92 897.924 854.079 894.099 845.975L894.071 846.002ZM810.393 880.044L322.344 1024.36C307.456 1028.79 293.165 1015.88 296.262 1000.86L470.628 165.955C473.888 150.333 495.46 147.861 502.279 162.314L825.064 847.768C826.491 850.822 827.239 854.15 827.255 857.521C827.272 860.893 826.557 864.227 825.159 867.296C823.762 870.364 821.716 873.093 819.162 875.293C816.608 877.494 813.634 879.115 810.393 880.044Z" fill="black"/>
</svg>
