<svg width="900" height="822" viewBox="0 0 900 822" fill="none" xmlns="http://www.w3.org/2000/svg">
<mask id="mask0_6_56" style="mask-type:luminance" maskUnits="userSpaceOnUse" x="0" y="0" width="900" height="801">
<path d="M900 0H0V800.746H900V0Z" fill="white"/>
</mask>
<g mask="url(#mask0_6_56)">
<path d="M450 480.588C494.3 480.588 530.217 444.674 530.217 400.371C530.217 356.069 494.3 320.155 450 320.155C405.697 320.155 369.781 356.069 369.781 400.371C369.781 444.674 405.697 480.588 450 480.588Z" fill="black"/>
<path d="M450 564.719C687.721 564.719 880.435 491.138 880.435 400.371C880.435 309.605 687.721 236.025 450 236.025C212.277 236.025 19.5652 309.605 19.5652 400.371C19.5652 491.138 212.277 564.719 450 564.719Z" stroke="black" stroke-width="39.1304"/>
<path d="M307.672 482.545C426.533 688.422 586.612 818.523 665.217 773.139C743.826 727.756 711.192 524.074 592.329 318.199C473.47 112.325 313.39 -17.7783 234.783 27.6051C156.177 72.9887 188.81 276.673 307.672 482.545Z" stroke="black" stroke-width="39.1304"/>
<path d="M307.672 318.199C188.81 524.074 156.177 727.755 234.783 773.139C313.39 818.522 473.47 688.422 592.329 482.549C711.192 276.673 743.826 72.9891 665.217 27.6056C586.612 -17.7778 426.533 112.325 307.672 318.199Z" stroke="black" stroke-width="39.1304"/>
</g>
</svg>
