<svg width="1674" height="1825" viewBox="0 0 1674 1825" fill="none" xmlns="http://www.w3.org/2000/svg">
<path d="M1654.96 735.663C1654.96 626.378 1518.11 522.809 1308.27 458.582C1356.7 244.717 1335.18 74.5657 1240.34 20.0902C1218.49 7.31196 1192.94 1.25896 1165.02 1.25896V76.247C1180.49 76.247 1192.94 79.2735 1203.36 84.9896C1249.09 111.218 1268.93 211.09 1253.46 339.543C1249.77 371.153 1243.71 404.443 1236.31 438.406C1170.4 422.265 1098.44 409.824 1022.78 401.753C977.389 339.543 930.311 283.051 882.894 233.62C992.518 131.731 1095.42 75.9101 1165.36 75.9101V0.922852C1072.88 0.922852 951.831 66.8314 829.433 181.162C707.027 67.5036 585.974 2.26805 493.502 2.26805V77.2553C563.108 77.2553 666.34 132.74 775.963 233.956C728.885 283.387 681.807 339.543 637.083 401.753C561.085 409.824 489.126 422.265 423.22 438.742C415.483 405.116 409.768 372.497 405.73 341.225C389.932 212.771 409.43 112.9 454.831 86.3348C464.914 80.2818 478.028 77.5922 493.502 77.5922V2.60415C465.252 2.60415 439.695 8.65716 417.505 21.4354C323.011 75.9101 301.829 245.725 350.584 458.918C141.428 523.482 5.2395 626.717 5.2395 735.663C5.2395 844.955 142.1 948.526 351.93 1012.75C303.506 1226.62 325.026 1396.76 419.859 1451.24C441.717 1464.02 467.268 1470.07 495.517 1470.07C587.989 1470.07 709.049 1404.16 831.448 1289.83C953.846 1403.49 1074.91 1468.73 1167.38 1468.73C1195.62 1468.73 1221.18 1462.68 1243.38 1449.89C1337.86 1395.42 1359.05 1225.6 1310.29 1012.42C1518.78 948.187 1654.96 844.617 1654.96 735.663ZM1217.15 511.376C1204.7 554.757 1189.24 599.474 1171.75 644.199C1157.96 617.302 1143.5 590.399 1127.7 563.495C1112.23 536.596 1095.75 510.367 1079.27 484.811C1127.02 491.872 1173.09 500.616 1217.15 511.376ZM1063.13 869.498C1036.9 914.9 1010.01 957.94 982.096 997.957C931.988 1002.33 881.218 1004.68 830.102 1004.68C779.324 1004.68 728.547 1002.33 678.784 998.288C650.873 958.271 623.631 915.569 597.403 870.506C571.845 826.458 548.649 781.733 527.459 736.678C548.31 691.615 571.845 646.552 597.072 602.505C623.3 557.111 650.196 514.066 678.108 474.05C728.216 469.678 778.986 467.325 830.102 467.325C880.879 467.325 931.657 469.678 981.419 473.714C1009.33 513.73 1036.57 556.434 1062.8 601.497C1088.36 645.545 1111.55 690.269 1132.74 735.332C1111.55 780.388 1088.36 825.45 1063.13 869.498ZM1171.75 825.789C1189.4 869.611 1204.89 914.274 1218.16 959.617C1174.1 970.377 1127.7 979.46 1079.61 986.52C1096.09 960.632 1112.56 934.066 1128.04 906.824C1143.5 879.927 1157.96 852.685 1171.75 825.789ZM830.771 1184.59C799.498 1152.3 768.226 1116.32 737.292 1076.98C767.557 1078.32 798.491 1079.33 829.763 1079.33C861.374 1079.33 892.647 1078.66 923.25 1076.98C894.386 1114.49 863.514 1150.41 830.771 1184.59ZM580.59 986.52C532.843 979.46 486.773 970.715 442.725 959.955C455.162 916.576 470.636 871.852 488.118 827.127C501.909 854.031 516.368 880.935 532.166 907.831C547.972 934.735 564.116 960.962 580.59 986.52ZM829.094 286.75C860.367 319.031 891.639 355.012 922.574 394.355C892.309 393.01 861.374 392.002 830.102 392.002C798.491 392.002 767.218 392.674 736.622 394.355C765.485 356.846 796.354 320.926 829.094 286.75ZM580.252 484.811C563.777 510.703 547.303 537.268 531.835 564.502C516.368 591.406 501.909 618.31 488.118 645.206C470.465 601.385 454.979 556.72 441.717 511.376C485.765 500.952 532.166 491.872 580.252 484.811ZM275.933 905.816C156.896 855.039 79.8907 788.463 79.8907 735.663C79.8907 682.87 156.896 615.957 275.933 565.517C304.852 553.073 336.463 541.976 369.081 531.552C388.248 597.459 413.467 666.057 444.74 736.34C413.806 806.284 388.917 874.544 370.089 940.119C336.801 929.69 305.19 918.261 275.933 905.816ZM456.846 1386.34C411.114 1360.11 391.27 1260.24 406.745 1131.78C410.445 1100.18 416.49 1066.89 423.889 1032.92C489.803 1049.07 561.762 1061.51 637.421 1069.58C682.815 1131.78 729.893 1188.28 777.309 1237.71C667.686 1339.6 564.785 1395.42 494.841 1395.42C479.712 1395.09 466.937 1392.06 456.846 1386.34ZM1254.47 1130.11C1270.27 1258.56 1250.77 1358.43 1205.37 1385C1195.29 1391.05 1182.18 1393.74 1166.7 1393.74C1097.1 1393.74 993.864 1338.26 884.24 1237.04C931.318 1187.61 978.396 1131.45 1023.12 1069.24C1099.12 1061.17 1171.08 1048.73 1236.98 1032.25C1244.72 1066.22 1250.77 1098.84 1254.47 1130.11ZM1383.93 905.816C1355.01 918.261 1323.4 929.359 1290.78 939.781C1271.62 873.874 1246.4 805.276 1215.13 734.994C1246.07 665.05 1270.95 596.79 1289.78 531.215C1323.07 541.64 1354.68 553.073 1384.27 565.517C1503.31 616.287 1580.31 682.87 1580.31 735.663C1579.97 788.463 1502.97 855.377 1383.93 905.816Z" fill="black"/>
<path d="M829.763 889.342C914.641 889.342 983.442 820.54 983.442 735.663C983.442 650.793 914.641 581.992 829.763 581.992C744.894 581.992 676.092 650.793 676.092 735.663C676.092 820.54 744.894 889.342 829.763 889.342ZM80.1501 1734.66H29.4215V1822.03H0.794189V1606.06H72.2887C96.6143 1606.06 115.304 1611.6 128.357 1622.68C141.509 1633.75 148.085 1649.87 148.085 1671.03C148.085 1684.48 144.426 1696.2 137.108 1706.19C129.89 1716.17 119.804 1723.64 106.85 1728.58L157.578 1820.25V1822.03H127.022L80.1501 1734.66ZM29.4215 1711.38H73.179C87.3198 1711.38 98.543 1707.71 106.85 1700.4C115.255 1693.08 119.457 1683.29 119.457 1671.03C119.457 1657.68 115.452 1647.45 107.443 1640.33C99.5318 1633.21 88.0612 1629.6 73.0302 1629.5H29.4215V1711.38ZM250.435 1825C228.677 1825 210.976 1817.88 197.33 1803.64C183.684 1789.3 176.861 1770.16 176.861 1746.24V1741.19C176.861 1725.27 179.877 1711.08 185.908 1698.62C192.04 1686.06 200.544 1676.27 211.421 1669.25C222.398 1662.13 234.264 1658.57 247.02 1658.57C267.887 1658.57 284.106 1665.44 295.671 1679.19C307.243 1692.93 313.025 1712.61 313.025 1738.22V1749.64H204.301C204.697 1765.47 209.296 1778.28 218.096 1788.07C226.996 1797.75 238.269 1802.6 251.916 1802.6C261.609 1802.6 269.812 1800.62 276.534 1796.67C283.264 1792.71 289.144 1787.47 294.19 1780.94L310.95 1794C297.498 1814.66 277.331 1825 250.435 1825ZM247.02 1681.12C235.945 1681.12 226.65 1685.17 219.135 1693.28C211.619 1701.29 206.971 1712.56 205.192 1727.1H285.587V1725.02C284.798 1711.08 281.038 1700.3 274.316 1692.68C267.586 1684.98 258.488 1681.12 247.02 1681.12ZM444.003 1822.03C442.417 1818.86 441.131 1813.23 440.146 1805.12C427.386 1818.37 412.159 1825 394.459 1825C378.638 1825 365.637 1820.55 355.449 1811.65C345.366 1802.65 340.32 1791.28 340.32 1777.53C340.32 1760.82 346.651 1747.87 359.306 1738.67C372.059 1729.37 389.962 1724.72 413.001 1724.72H439.702V1712.12C439.702 1702.53 436.83 1694.91 431.1 1689.28C425.363 1683.54 416.904 1680.68 405.73 1680.68C395.94 1680.68 387.737 1683.14 381.112 1688.09C374.488 1693.03 371.172 1699.01 371.172 1706.04H343.583C343.583 1698.03 346.403 1690.32 352.035 1682.89C357.772 1675.38 365.487 1669.45 375.179 1665.1C384.969 1660.75 395.692 1658.57 407.362 1658.57C425.859 1658.57 440.341 1663.22 450.823 1672.52C461.305 1681.71 466.741 1694.42 467.14 1710.63V1784.5C467.14 1799.24 469.02 1810.95 472.779 1819.65V1822.03H444.003ZM398.466 1801.12C407.069 1801.12 415.227 1798.89 422.942 1794.44C430.649 1789.99 436.236 1784.21 439.702 1777.09V1744.16H418.189C384.571 1744.16 367.758 1754 367.758 1773.67C367.758 1782.28 370.63 1789.01 376.36 1793.85C382.097 1798.69 389.466 1801.12 398.466 1801.12ZM574.53 1802.6C584.32 1802.6 592.877 1799.63 600.193 1793.7C607.509 1787.76 611.562 1780.35 612.352 1771.45H638.316C637.819 1780.64 634.654 1789.4 628.819 1797.71C622.984 1806.01 615.171 1812.64 605.381 1817.58C595.689 1822.53 585.41 1825 574.53 1825C552.679 1825 535.272 1817.73 522.316 1803.19C509.466 1788.55 503.037 1768.58 503.037 1743.27V1738.67C503.037 1723.05 505.902 1709.15 511.639 1696.99C517.376 1684.83 525.579 1675.38 536.264 1668.66C547.039 1661.93 559.747 1658.57 574.379 1658.57C592.381 1658.57 607.314 1663.96 619.179 1674.74C631.142 1685.52 637.519 1699.51 638.316 1716.72H612.352C611.562 1706.33 607.607 1697.83 600.486 1691.2C593.471 1684.48 584.764 1681.12 574.379 1681.12C560.439 1681.12 549.611 1686.16 541.896 1696.25C534.287 1706.23 530.475 1720.72 530.475 1739.71V1744.9C530.475 1763.39 534.287 1777.63 541.896 1787.61C549.513 1797.61 560.394 1802.6 574.53 1802.6ZM706.395 1622.68V1661.54H736.359V1682.75H706.395V1782.28C706.395 1788.7 707.733 1793.55 710.403 1796.81C713.072 1799.98 717.621 1801.56 724.05 1801.56C727.208 1801.56 731.562 1800.97 737.096 1799.78V1822.03C729.878 1824.01 722.862 1825 716.035 1825C703.778 1825 694.53 1821.29 688.296 1813.87C682.07 1806.46 678.957 1795.92 678.957 1782.28V1682.75H649.73V1661.54H678.957V1622.68H706.395ZM1014.18 1822.03H985.547L876.826 1655.61V1822.03H848.201V1606.06H876.826L985.848 1773.23V1606.06H1014.18V1822.03ZM1159.54 1822.03C1157.96 1818.86 1156.67 1813.23 1155.69 1805.12C1142.93 1818.37 1127.7 1825 1110 1825C1094.18 1825 1081.17 1820.55 1070.99 1811.65C1060.91 1802.65 1055.86 1791.28 1055.86 1777.53C1055.86 1760.82 1062.18 1747.87 1074.85 1738.67C1087.6 1729.37 1105.5 1724.72 1128.54 1724.72H1155.24V1712.12C1155.24 1702.53 1152.37 1694.91 1146.63 1689.28C1140.9 1683.54 1132.44 1680.68 1121.27 1680.68C1111.48 1680.68 1103.28 1683.14 1096.65 1688.09C1090.03 1693.03 1086.71 1699.01 1086.71 1706.04H1059.12C1059.12 1698.03 1061.94 1690.32 1067.57 1682.89C1073.31 1675.38 1081.03 1669.45 1090.72 1665.1C1100.51 1660.75 1111.23 1658.57 1122.9 1658.57C1141.39 1658.57 1155.88 1663.22 1166.36 1672.52C1176.84 1681.71 1182.28 1694.42 1182.68 1710.63V1784.5C1182.68 1799.24 1184.56 1810.95 1188.32 1819.65V1822.03H1159.54ZM1114.01 1801.12C1122.61 1801.12 1130.77 1798.89 1138.48 1794.44C1146.19 1789.99 1151.78 1784.21 1155.24 1777.09V1744.16H1133.73C1100.11 1744.16 1083.3 1754 1083.3 1773.67C1083.3 1782.28 1086.17 1789.01 1091.9 1793.85C1097.64 1798.69 1105.01 1801.12 1114.01 1801.12ZM1262.93 1622.68V1661.54H1292.89V1682.75H1262.93V1782.28C1262.93 1788.7 1264.26 1793.55 1266.93 1796.81C1269.6 1799.98 1274.15 1801.56 1280.58 1801.56C1283.74 1801.56 1288.09 1800.97 1293.63 1799.78V1822.03C1286.41 1824.01 1279.39 1825 1272.56 1825C1260.31 1825 1251.06 1821.29 1244.83 1813.87C1238.6 1806.46 1235.49 1795.92 1235.49 1782.28V1682.75H1206.27V1661.54H1235.49V1622.68H1262.93ZM1354.89 1822.03H1327.45V1661.54H1354.89V1822.03ZM1325.22 1618.96C1325.22 1614.52 1326.56 1610.76 1329.23 1607.69C1332 1604.63 1336.05 1603.1 1341.39 1603.1C1346.73 1603.1 1350.79 1604.63 1353.55 1607.69C1356.32 1610.76 1357.71 1614.52 1357.71 1618.96C1357.71 1623.42 1356.32 1627.12 1353.55 1630.09C1350.79 1633.06 1346.73 1634.54 1341.39 1634.54C1336.05 1634.54 1332 1633.06 1329.23 1630.09C1326.56 1627.12 1325.22 1623.42 1325.22 1618.96ZM1451.9 1784.8L1491.65 1661.54H1519.69L1462.13 1822.03H1441.21L1383.08 1661.54H1411.11L1451.9 1784.8ZM1610.61 1825C1588.85 1825 1571.15 1817.88 1557.51 1803.64C1543.86 1789.3 1537.04 1770.16 1537.04 1746.24V1741.19C1537.04 1725.27 1540.05 1711.08 1546.09 1698.62C1552.21 1686.06 1560.72 1676.27 1571.6 1669.25C1582.58 1662.13 1594.44 1658.57 1607.19 1658.57C1628.06 1658.57 1644.28 1665.44 1655.85 1679.19C1667.42 1692.93 1673.21 1712.61 1673.21 1738.22V1749.64H1564.48C1564.88 1765.47 1569.47 1778.28 1578.28 1788.07C1587.17 1797.75 1598.45 1802.6 1612.09 1802.6C1621.78 1802.6 1629.99 1800.62 1636.71 1796.67C1643.44 1792.71 1649.32 1787.47 1654.37 1780.94L1671.13 1794C1657.68 1814.66 1637.5 1825 1610.61 1825ZM1607.19 1681.12C1596.13 1681.12 1586.82 1685.17 1579.31 1693.28C1571.79 1701.29 1567.15 1712.56 1565.37 1727.1H1645.76V1725.02C1644.97 1711.08 1641.21 1700.3 1634.49 1692.68C1627.77 1684.98 1618.67 1681.12 1607.19 1681.12Z" fill="black"/>
</svg>
