<svg width="900" height="855" viewBox="0 0 900 855" fill="none" xmlns="http://www.w3.org/2000/svg">
<g clip-path="url(#clip0_6_36)">
<path d="M623.308 596.874C656.502 593.435 681.687 564.796 680.543 530.425C679.398 496.058 650.778 468.561 616.436 468.561H614.151C578.657 469.71 551.188 499.493 552.332 535.009C553.477 552.193 560.346 567.087 570.648 577.396C531.725 654.154 472.199 710.289 382.911 757.26C322.239 789.337 259.28 800.795 196.321 792.779C144.806 785.902 104.74 762.992 79.5522 725.182C42.9228 669.047 39.4897 608.328 70.3982 547.613C92.1498 504.077 126.488 472 148.239 455.958C143.661 441.068 136.791 415.865 133.358 397.536C-32.6305 517.826 -15.4579 680.506 34.911 757.26C72.686 814.544 149.385 850.06 234.095 850.06C256.989 850.06 279.882 847.766 302.779 842.04C449.306 813.398 560.349 726.328 623.308 596.874ZM824.783 454.816C737.78 352.854 609.57 296.72 463.045 296.72H444.729C434.424 276.098 412.676 262.348 388.636 262.348H386.344C350.86 263.495 323.388 293.28 324.53 328.797C325.676 363.165 354.293 390.662 388.636 390.662H390.924C416.109 389.513 437.86 373.474 447.014 351.708H467.622C554.624 351.708 637.043 376.91 711.455 426.174C768.69 463.981 809.901 513.245 832.793 572.816C852.256 620.931 851.108 667.902 830.504 708.002C798.451 768.718 744.65 801.944 673.677 801.944C627.885 801.944 584.386 788.192 561.49 777.882C548.9 789.337 526.004 807.666 509.977 819.128C559.201 842.037 609.57 854.64 657.65 854.64C767.545 854.64 848.82 793.921 879.729 733.205C912.927 666.757 910.635 552.193 824.783 454.816ZM243.253 616.344C244.398 650.715 273.016 678.208 307.358 678.208H309.649C345.136 677.067 372.609 647.276 371.461 611.763C370.321 577.392 341.699 549.899 307.358 549.899H305.07C302.779 549.899 299.342 549.899 297.058 551.044C250.123 473.141 230.662 388.368 237.532 296.716C242.107 227.978 265.004 168.404 305.07 119.141C338.266 76.7521 402.37 56.1313 445.874 54.9883C567.215 52.6956 618.724 203.918 622.161 264.638C637.043 268.074 662.227 276.095 679.398 281.823C665.66 96.2339 551.188 0 441.297 0C338.266 0 243.253 74.4666 205.474 184.447C152.818 331.087 187.16 472 251.265 583.125C245.544 591.141 242.107 603.741 243.253 616.344Z" fill="black"/>
</g>
<defs>
<clipPath id="clip0_6_36">
<rect width="900" height="854.64" fill="white"/>
</clipPath>
</defs>
</svg>
