<svg width="900" height="393" viewBox="0 0 900 393" fill="none" xmlns="http://www.w3.org/2000/svg">
<g clip-path="url(#clip0_7_74)">
<path d="M608.025 0L605.213 14.6625C600.863 42.45 602.437 50.4 614.362 60.7125L625.875 70.2375L613.95 123.413C606.825 155.138 598.087 181.725 592.537 190.462C587.775 198 582.225 209.1 581.025 215.062C579.038 222.187 572.287 229.35 561.975 235.688C552.862 240.862 534.975 254.738 522.3 265.875C512.175 274.988 505.2 280.575 501.413 282.975L489.038 292.763C485.063 299.138 482.813 304.275 481.95 308.175C481.088 312.187 481.575 314.85 482.85 316.8C484.088 318.675 486.225 319.988 489.15 320.812C492.613 321.624 496.177 321.915 499.725 321.675C507.752 321.127 515.698 319.718 523.425 317.475C526.05 316.762 528.112 316.088 529.912 315.488C532.687 312.075 539.1 305.625 550.463 294.413C580.613 264.675 592.125 248.4 580.237 252.788C575.85 254.363 577.837 250.387 585.375 242.438C601.275 226.95 610.387 203.55 629.438 130.162C644.513 72.225 644.512 71.4 655.612 71.4C660.825 71.4 675.562 72.3 675.562 72.3V0H641.738H608.025ZM751.987 118.688C749.587 118.688 745.612 122.287 743.25 126.262C738.9 133.387 744.038 137.737 809.513 178.612C848.4 203.25 879.75 224.25 878.962 225.862C878.175 227.025 846.412 247.688 808.35 271.5C739.275 314.325 738.9 314.737 745.237 323.475C753.187 333.787 745.238 337.35 834.9 281.4L900 239.737V208.388L827.362 163.538C788.1 138.938 753.975 119.1 751.987 118.688ZM148.8 123.075C146.813 123.075 112.687 143.325 73.425 167.512L0 212.363V243.712L73.0125 289.35C113.513 314.325 147.638 334.987 149.213 334.987C150.788 334.987 153.975 331.387 157.163 327.037C161.925 319.5 157.913 316.312 90.8625 273.862C27 233.775 20.25 228.225 26.625 223.875C30.6 221.1 60.75 202.425 93.3 182.213C167.512 136.575 163.538 139.725 157.575 130.2C155.213 126.263 151.2 122.7 148.838 123.075H148.8ZM474.45 123.938C463.5 123.863 439.95 140.55 369.45 198.113C366.413 205.35 366.15 210.337 367.537 213.562C368.437 215.775 370.087 217.312 372.375 218.438C374.625 219.562 377.55 220.237 380.775 220.5C387.188 221.062 394.762 220.05 400.875 218.85L405 217.912C406.412 216.019 408.266 214.5 410.4 213.487C414.75 211.087 433.013 194.437 451.275 176.587C483.413 144.037 490.95 129.337 477.862 124.575C476.789 124.148 475.606 123.931 474.45 123.938ZM556.8 146.55C547.162 146.813 529.8 157.987 500.062 181.725C485.137 193.837 475.688 200.362 470.625 201.712L450.975 217.238C443.588 230.738 442.5 239.1 444.45 243.712C444.938 244.85 445.647 245.88 446.535 246.743C447.423 247.605 448.473 248.283 449.625 248.738C452.49 249.869 455.545 250.442 458.625 250.425C465.985 250.347 473.302 249.274 480.375 247.237C484.061 246.248 487.702 245.097 491.288 243.787L492.375 243.338L494.362 242.287C498.112 237.45 506.737 228.337 517.537 217.837C551.662 184.912 569.1 161.513 565.538 152.775C563.925 148.538 561.15 146.4 556.8 146.55ZM465.9 187.05C463.125 187.35 456.9 192.15 445.688 201.975C429.487 216.3 411.825 224.55 405.713 220.875C404.292 221.196 402.867 221.496 401.438 221.775C395.213 223.012 387.45 224.025 380.513 223.462C377.244 223.265 374.04 222.464 371.063 221.1C368.254 219.816 366.013 217.548 364.763 214.725C363.375 211.35 363.375 207.15 364.95 201.787L340.575 221.812L285.413 267.45V341.437L466.162 199.05C466.127 197.491 466.33 195.936 466.762 194.437C468.15 189.412 468.075 186.863 465.9 187.088V187.05ZM543.675 211.012C540.937 211.012 536.362 214.875 529.05 222.638C519.112 233.25 503.475 243.525 495.188 245.625L493.912 246.3C492.552 246.862 491.176 247.387 489.788 247.875C487.538 248.625 484.613 249.525 481.238 250.425C474.488 252.262 466.087 253.95 458.587 253.763C455.052 253.758 451.55 253.07 448.275 251.738C445.188 250.465 442.715 248.046 441.375 244.988C439.2 239.775 440.063 232.462 444.825 222.075L285.375 347.663V392.85H355.425L504 276.15C507.862 271.875 513.675 266.025 521.513 258.712C542.513 239.25 547.275 232.537 547.275 222.6C547.275 214.875 546.412 210.975 543.675 210.975V211.012ZM579.037 284.137L566.325 296.812C559.2 303.563 546.487 311.887 537.787 315.45L536.062 316.2L535.95 316.388L535.575 316.762C535.238 317.025 535.088 317.063 534.825 317.175C531.352 318.49 527.824 319.653 524.25 320.662C516.304 322.975 508.132 324.421 499.875 324.975C495.971 325.225 492.052 324.884 488.25 323.962C484.951 323.236 482.038 321.312 480.075 318.562C478.275 315.787 477.75 312.075 478.763 307.5C479.568 304.243 480.764 301.095 482.325 298.125L362.438 392.85H521.888L540.938 371.025C567.113 340.5 579.037 318.675 579.037 300V284.137Z" fill="black"/>
</g>
<defs>
<clipPath id="clip0_7_74">
<rect width="900" height="392.85" fill="white"/>
</clipPath>
</defs>
</svg>
