<svg width="900" height="542" viewBox="0 0 900 542" fill="none" xmlns="http://www.w3.org/2000/svg">
<g clip-path="url(#clip0_6_38)">
<path fill-rule="evenodd" clip-rule="evenodd" d="M449.999 0.471924C329.999 0.471924 255 60.5351 224.999 180.661C269.999 120.598 322.499 98.0743 382.499 113.091C416.732 121.649 441.199 146.525 468.282 174.038C512.399 218.868 563.465 270.756 674.997 270.756C794.998 270.756 869.997 210.693 900 90.5668C854.998 150.63 802.497 173.154 742.496 158.137C708.266 149.579 683.8 124.703 656.714 97.1902C612.599 52.3598 561.532 0.471924 449.999 0.471924ZM224.999 270.756C105 270.756 30 330.819 0 450.945C44.9999 390.882 97.4999 368.358 157.5 383.374C191.733 391.95 216.2 416.809 243.283 444.322C287.4 489.152 338.466 541.04 449.999 541.04C569.999 541.04 645 480.977 674.997 360.851C629.999 420.914 577.499 443.438 517.499 428.422C483.266 419.863 458.799 394.987 431.716 367.474C387.599 322.644 336.533 270.756 224.999 270.756Z" fill="black"/>
</g>
<defs>
<clipPath id="clip0_6_38">
<rect width="900" height="540.568" fill="white" transform="translate(0 0.471924)"/>
</clipPath>
</defs>
</svg>
