<svg width="900" height="594" viewBox="0 0 900 594" fill="none" xmlns="http://www.w3.org/2000/svg">
<g clip-path="url(#clip0_6_50)">
<path fill-rule="evenodd" clip-rule="evenodd" d="M508.651 433.186V561.183C529.458 571.85 554.068 579.848 582.479 585.182C610.89 590.515 640.833 593.182 672.313 593.182C702.992 593.182 732.135 590.249 759.746 584.381C787.357 578.516 811.567 568.849 832.375 555.382C853.182 541.918 869.656 524.317 881.793 502.584C893.93 480.851 900 453.986 900 421.988C900 398.787 896.533 378.455 889.596 360.99C882.66 343.524 872.657 327.991 859.584 314.391C846.514 300.792 830.841 288.591 812.567 277.791C794.293 266.991 773.686 256.791 750.743 247.193C733.937 240.259 718.865 233.527 705.526 226.994C692.187 220.459 680.85 213.793 671.512 206.995C662.175 200.194 654.972 192.994 649.905 185.395C644.837 177.793 642.301 169.195 642.301 159.594C642.301 150.796 644.569 142.862 649.105 135.795C653.64 128.728 660.043 122.663 668.311 117.596C676.583 112.531 686.718 108.596 698.722 105.796C710.729 102.996 724.065 101.598 738.739 101.598C749.409 101.598 760.679 102.398 772.55 103.996C784.422 105.597 796.359 108.064 808.366 111.395C820.371 114.73 832.04 118.93 843.379 123.995C854.716 129.063 865.186 134.928 874.79 141.597V21.9989C855.317 14.533 834.042 9 810.967 5.4C787.891 1.8 761.413 0 731.536 0C701.123 0 672.313 3.26759 645.103 9.80027C617.893 16.3329 593.951 26.5321 573.274 40.3977C552.6 54.2659 536.262 71.9309 524.258 93.398C512.253 114.862 506.25 140.528 506.25 170.394C506.25 208.526 517.255 241.059 539.264 267.993C561.27 294.924 594.683 317.723 639.501 336.39C657.107 343.59 673.514 350.655 688.72 357.589C703.925 364.523 717.065 371.723 728.133 379.189C739.204 386.655 747.941 394.788 754.346 403.589C760.748 412.387 763.949 422.386 763.949 433.588C763.949 441.854 761.947 449.519 757.946 456.586C753.944 463.653 747.874 469.785 739.739 474.985C731.603 480.186 721.465 484.251 709.328 487.184C697.188 490.119 682.985 491.584 666.711 491.584C638.967 491.584 611.491 486.718 584.279 476.985C557.069 467.253 531.859 452.654 508.651 433.186ZM293.472 117.823H457.67V12.7841H0V117.823H163.396V585.511H293.472V117.823Z" fill="black"/>
</g>
<defs>
<clipPath id="clip0_6_50">
<rect width="900" height="593.182" fill="white"/>
</clipPath>
</defs>
</svg>
